<svg xmlns="http://www.w3.org/2000/svg" width="100" height="100" viewBox="0 0 100 100">
  <rect width="100" height="100" rx="26" fill="#b35c38"/>
  <!-- Monogram "B" drawn as a path so it renders identically without web fonts -->
  <path fill="#faf6ee" fill-rule="evenodd" d="
    M30 24
    h26
    a17 17 0 0 1 8.8 31.5
    A18 18 0 0 1 58 90
    H30
    a4 4 0 0 1 -4 -4
    V28
    a4 4 0 0 1 4 -4
    Z
    M42 39
    h13
    a6.5 6.5 0 0 0 0 -13
    H42
    Z
    M42 75
    h15
    a7.5 7.5 0 0 0 0 -15
    H42
    Z" transform="translate(3,-1)"/>
</svg>
